<svg width="80" height="80" viewBox="0 0 80 80" fill="none" xmlns="http://www.w3.org/2000/svg">
<path d="M40 63.5897L40 40V44.1026" stroke="#6E7787" stroke-width="2.46154" stroke-miterlimit="10" stroke-linecap="square"/>
<path d="M28.7178 51.2821L39.9998 40L51.2819 51.2821" stroke="#6E7787" stroke-width="2.46154" stroke-miterlimit="10" stroke-linecap="square"/>
<path d="M48.2053 63.5057C52.8421 63.1189 57.2743 61.4258 60.9881 58.6227C64.7019 55.8196 67.5452 52.0214 69.1884 47.6683C70.8315 43.3151 71.2072 38.5854 70.2719 34.0275C69.3366 29.4696 67.1286 25.27 63.9039 21.9158C60.6792 18.5616 56.5699 16.19 52.0523 15.076C47.5347 13.962 42.7939 14.1512 38.3795 15.6218C33.965 17.0923 30.0578 19.7839 27.1107 23.3844C24.1636 26.985 22.2974 31.3472 21.7283 35.9652C18.1936 36.3159 14.9288 38.0118 12.6093 40.702C10.2897 43.3922 9.09278 46.871 9.266 50.4188C9.43922 53.9667 10.9693 57.3124 13.5399 59.7638C16.1105 62.2153 19.5249 63.585 23.0771 63.5898L31.795 63.5898" stroke="#6E7787" stroke-width="2.46154" stroke-miterlimit="10" stroke-linecap="square"/>
</svg>
