<svg width="50" height="50" viewBox="0 0 50 50" fill="none" xmlns="http://www.w3.org/2000/svg">
<rect width="50" height="50" rx="25" fill="#F3F4F6"/>
<path d="M24.9999 27.5714C26.4201 27.5714 27.5713 26.4202 27.5713 25C27.5713 23.5799 26.4201 22.4286 24.9999 22.4286C23.5797 22.4286 22.4285 23.5799 22.4285 25C22.4285 26.4202 23.5797 27.5714 24.9999 27.5714Z" stroke="#4069E5" stroke-width="2.05714" stroke-miterlimit="10" stroke-linecap="square"/>
<path d="M31.8572 25C31.8562 24.5062 31.8022 24.0139 31.6961 23.5317L34.0224 21.7703L32.3081 18.8011L29.6141 19.9377C28.8845 19.2689 28.0186 18.7662 27.0761 18.4643L26.7144 15.5714H23.2858L22.9241 18.4643C21.9815 18.7662 21.1156 19.2689 20.3861 19.9377L17.6921 18.8011L15.9778 21.7703L18.3041 23.5317C18.0893 24.4988 18.0893 25.5012 18.3041 26.4683L15.9778 28.2297L17.6921 31.1988L20.3861 30.0623C21.1156 30.7311 21.9815 31.2338 22.9241 31.5357L23.2858 34.4286H26.7144L27.0761 31.5357C28.0186 31.2338 28.8845 30.7311 29.6141 30.0623L32.3081 31.1988L34.0224 28.2297L31.6961 26.4683C31.8022 25.986 31.8562 25.4938 31.8572 25Z" stroke="#4069E5" stroke-width="2.05714" stroke-miterlimit="10" stroke-linecap="square"/>
</svg>
