<svg width="50" height="50" viewBox="0 0 50 50" fill="none" xmlns="http://www.w3.org/2000/svg">
<rect width="50" height="50" rx="25" fill="#F3F4F6"/>
<path d="M24.1428 15.5714L24.1428 23.2857" stroke="#4069E5" stroke-width="2.05714" stroke-miterlimit="10"/>
<path d="M17.2856 23.2858L30.9999 23.2858" stroke="#4069E5" stroke-width="2.05714" stroke-miterlimit="10"/>
<path d="M24.1428 34.4286C22.3242 34.4286 20.58 33.7061 19.2941 32.4201C18.0081 31.1342 17.2856 29.39 17.2856 27.5714L17.2856 22.4286C17.2856 20.6099 18.0081 18.8658 19.2941 17.5798C20.58 16.2939 22.3242 15.5714 24.1428 15.5714C25.9614 15.5714 27.7056 16.2939 28.9915 17.5798C30.2775 18.8658 30.9999 20.6099 30.9999 22.4286L30.9999 27.5714C30.9999 29.39 30.2775 31.1342 28.9915 32.4201C27.7056 33.7061 25.9614 34.4286 24.1428 34.4286Z" stroke="#4069E5" stroke-width="2.05714" stroke-miterlimit="10" stroke-linecap="square"/>
</svg>
