<svg width="116" height="116" viewBox="0 0 116 116" fill="none" xmlns="http://www.w3.org/2000/svg">
<path d="M13.3846 78.8205L13.3846 41.641L66.9231 41.641V63.9487" stroke="#171A1F" stroke-width="3.56923" stroke-miterlimit="10" stroke-linecap="square"/>
<path d="M55.0257 41.6411L55.0257 28.2564C55.0143 24.3157 53.4438 20.5396 50.6573 17.7531C47.8707 14.9665 44.0946 13.396 40.1539 13.3846C36.2132 13.396 32.4371 14.9665 29.6505 17.7531C26.864 20.5396 25.2935 24.3157 25.2821 28.2564L25.2821 41.6411" stroke="#171A1F" stroke-width="3.56923" stroke-miterlimit="10" stroke-linecap="square"/>
<path d="M40.1538 63.9487C43.4392 63.9487 46.1025 61.2854 46.1025 58C46.1025 54.7146 43.4392 52.0513 40.1538 52.0513C36.8684 52.0513 34.2051 54.7146 34.2051 58C34.2051 61.2854 36.8684 63.9487 40.1538 63.9487Z" stroke="#171A1F" stroke-width="3.56923" stroke-miterlimit="10"/>
<path d="M53.5384 92.2052C56.0025 92.2052 58 90.2077 58 87.7436C58 85.2796 56.0025 83.2821 53.5384 83.2821C51.0744 83.2821 49.0769 85.2796 49.0769 87.7436C49.0769 90.2077 51.0744 92.2052 53.5384 92.2052Z" stroke="#171A1F" stroke-width="3.56923" stroke-miterlimit="10"/>
<path d="M71.3846 92.2052C73.8487 92.2052 75.8462 90.2077 75.8462 87.7436C75.8462 85.2796 73.8487 83.2821 71.3846 83.2821C68.9206 83.2821 66.9231 85.2796 66.9231 87.7436C66.9231 90.2077 68.9206 92.2052 71.3846 92.2052Z" stroke="#171A1F" stroke-width="3.56923" stroke-miterlimit="10"/>
<path d="M89.2308 92.2052C91.6949 92.2052 93.6924 90.2077 93.6924 87.7436C93.6924 85.2796 91.6949 83.2821 89.2308 83.2821C86.7668 83.2821 84.7693 85.2796 84.7693 87.7436C84.7693 90.2077 86.7668 92.2052 89.2308 92.2052Z" stroke="#171A1F" stroke-width="3.56923" stroke-miterlimit="10"/>
<path d="M35.6923 92.2052C38.1563 92.2052 40.1538 90.2077 40.1538 87.7436C40.1538 85.2796 38.1563 83.2821 35.6923 83.2821C33.2282 83.2821 31.2307 85.2796 31.2307 87.7436C31.2307 90.2077 33.2282 92.2052 35.6923 92.2052Z" stroke="#171A1F" stroke-width="3.56923" stroke-miterlimit="10"/>
<path d="M95.1795 72.8718L29.7436 72.8718C25.6369 72.8718 22.3077 76.201 22.3077 80.3077L22.3077 95.1795C22.3077 99.2863 25.6369 102.615 29.7436 102.615L95.1795 102.615C99.2863 102.615 102.615 99.2863 102.615 95.1795V80.3077C102.615 76.201 99.2863 72.8718 95.1795 72.8718Z" stroke="#171A1F" stroke-width="3.56923" stroke-miterlimit="10" stroke-linecap="square"/>
</svg>
