<svg width="24" height="24" viewBox="0 0 24 24" fill="none" xmlns="http://www.w3.org/2000/svg">
<path d="M15.4284 12L8.57129 12L8.57129 16.2857H15.4284V12Z" stroke="#4069E5" stroke-width="2.05714" stroke-miterlimit="10" stroke-linecap="square"/>
<path d="M10.2856 11.9999L10.2856 9.42852C10.287 8.97428 10.468 8.53903 10.7892 8.21783C11.1104 7.89664 11.5457 7.71559 11.9999 7.71423C12.4542 7.71559 12.8894 7.89664 13.2106 8.21783C13.5318 8.53903 13.7129 8.97428 13.7142 9.42852V11.9999" stroke="#4069E5" stroke-width="2.05714" stroke-miterlimit="10" stroke-linecap="square"/>
<path d="M19.7142 13.7143C19.7142 15.7603 18.9015 17.7224 17.4548 19.1691C16.008 20.6158 14.0459 21.4286 11.9999 21.4286C9.95397 21.4286 7.99182 20.6158 6.54511 19.1691C5.0984 17.7224 4.28564 15.7603 4.28564 13.7143L4.28564 5.14287L11.9999 3.42859L19.7142 5.14287V13.7143Z" stroke="#4069E5" stroke-width="2.05714" stroke-miterlimit="10" stroke-linecap="square"/>
</svg>
